<svg xmlns="http://www.w3.org/2000/svg" width="85.005" height="61.061" viewBox="0 0 85.005 61.061"><defs><style>.a{fill:#fff;}</style></defs><g transform="translate(-98.206 -453.052)"><path class="a" d="M175.081,453.13l-4.924,1.93-40.705,15.95q-8.4,3.292-16.8,6.589a.542.542,0,0,1-.634-.09q-6.285-5.27-12.585-10.523c-.095-.079-.184-.165-.3-.271.064-.017.1-.041.125-.031A20.718,20.718,0,0,0,105.811,468a79.649,79.649,0,0,0,17.384-.851,155.687,155.687,0,0,0,15.889-3.428c12-3.091,23.85-6.723,35.631-10.572.114-.037.232-.063.348-.094Z" transform="translate(-0.604)"/><path class="a" d="M223.849,580.15v.509q0,2.609,0,5.217c0,.721-.388,1.16-1.017,1.163a1.026,1.026,0,0,1-1.027-1.161q0-9.913,0-19.826c0-.8.373-1.16,1.184-1.161q1.544,0,3.088,0a4.287,4.287,0,0,1,4.508,4.181c.091,2.36.077,4.731-.02,7.092a4.282,4.282,0,0,1-4.272,3.983C225.5,580.154,224.71,580.15,223.849,580.15Zm.033-13.2V578.1h2.244a2.332,2.332,0,0,0,2.439-2.4q.012-3.195,0-6.389a2.264,2.264,0,0,0-2.046-2.348C225.655,566.878,224.775,566.949,223.882,566.949Z" transform="translate(-80.593 -72.927)"/><path class="a" d="M100.291,573.191c0,.914-.046,1.765.013,2.61a2.166,2.166,0,0,0,1.394,1.923,2.284,2.284,0,0,0,2.493-.393,1.828,1.828,0,0,1,.673-.378,1.008,1.008,0,0,1,.878,1.725,4.437,4.437,0,0,1-5.273.72,4.312,4.312,0,0,1-2.249-3.968q-.026-3.235,0-6.47a4.268,4.268,0,0,1,2.464-4.086,4.4,4.4,0,0,1,6.352,3.92c.022,1.085.008,2.17,0,3.256a1.008,1.008,0,0,1-1.156,1.142h-5.591Zm4.688-2.033c0-.816.007-1.593,0-2.37a2.311,2.311,0,0,0-2.176-2.317,2.253,2.253,0,0,0-2.46,1.9,22.783,22.783,0,0,0-.023,2.79Z" transform="translate(0 -72.595)"/><path class="a" d="M258.333,571.145c0-.957.065-1.809-.018-2.647a2.119,2.119,0,0,0-1.5-1.839,2.074,2.074,0,0,0-2.278.471,1.057,1.057,0,0,1-1.253.274.914.914,0,0,1-.593-.962,1.209,1.209,0,0,1,.285-.664,4.311,4.311,0,0,1,4.691-.984,4.253,4.253,0,0,1,2.721,3.941q.007,4.987,0,9.975c0,.811-.36,1.17-1.17,1.173-1.1,0-2.2.006-3.3,0a4.382,4.382,0,0,1-.55-8.723A28.215,28.215,0,0,1,258.333,571.145Zm0,2c-.82,0-1.6-.013-2.376,0a2.331,2.331,0,0,0-2.288,2.073,2.26,2.26,0,0,0,1.879,2.555,21.593,21.593,0,0,0,2.785.023Z" transform="translate(-100.014 -72.663)"/><path class="a" d="M188.156,572.176c0-1.085,0-2.17,0-3.255a4.4,4.4,0,0,1,8.743-.746,3.173,3.173,0,0,1,.045.539c0,2.351.042,4.7-.013,7.052a4.107,4.107,0,0,1-2.533,3.814,4.187,4.187,0,0,1-4.489-.461,4.07,4.07,0,0,1-1.737-3.272c-.038-1.223-.008-2.448-.008-3.672Zm6.764.077c0-1.1.015-2.2,0-3.3a2.372,2.372,0,0,0-2.36-2.456,2.339,2.339,0,0,0-2.358,2.368c-.034,2.239-.039,4.48,0,6.72a2.335,2.335,0,0,0,2.848,2.314,2.379,2.379,0,0,0,1.871-2.435C194.93,574.4,194.921,573.324,194.921,572.253Z" transform="translate(-58.652 -72.638)"/><path class="a" d="M137.133,577.815v-.683q0-5.741,0-11.482a1.048,1.048,0,0,1,.786-1.17,1.011,1.011,0,0,1,1.255.892c.01.11,0,.222,0,.334q0,6.451,0,12.9c0,.931-.323,1.257-1.252,1.253-1.21,0-2.426.055-3.629-.04a4.287,4.287,0,0,1-3.909-4.219c-.023-3.354-.008-6.708,0-10.062a1.028,1.028,0,1,1,2.054-.014c.014,1.364,0,2.728,0,4.092q0,2.881,0,5.761a2.319,2.319,0,0,0,2.436,2.436Z" transform="translate(-20.977 -72.638)"/><path class="a" d="M221.348,475.007c-1.458.838-2.921,1.666-4.371,2.516-4.439,2.6-8.852,5.246-13.021,8.272a34.3,34.3,0,0,0-6.816,6.415c-.548.691-.987,1.469-1.457,2.179,0-.164-.01-.4,0-.637.1-2.042.206-4.083.3-6.124a.509.509,0,0,1,.327-.506q8.51-4.136,17.013-8.284l7.756-3.779c.083-.041.168-.079.252-.119Z" transform="translate(-63.558 -14.272)"/><path class="a" d="M303.169,566.924v.56q0,5.822,0,11.644a1.035,1.035,0,0,1-.771,1.137,1,1,0,0,1-1.27-1c-.016-.918,0-1.836,0-2.754q0-5.175,0-10.35c0-.957.313-1.267,1.276-1.267,1.085,0,2.17,0,3.255,0a4.33,4.33,0,0,1,2.033.544,1.019,1.019,0,0,1,.436,1.365.942.942,0,0,1-1.3.482,3.869,3.869,0,0,0-1.941-.36C304.333,566.937,303.778,566.924,303.169,566.924Z" transform="translate(-132.312 -72.926)"/><path class="a" d="M167.322,566.922v1.068q0,5.549,0,11.1c0,.773-.4,1.215-1.071,1.2a.966.966,0,0,1-.968-.9c-.011-.11-.006-.222-.006-.334q0-6.467,0-12.935c0-.9.322-1.222,1.234-1.222,1.071,0,2.142.007,3.212,0a4.373,4.373,0,0,1,2.041.511,1.021,1.021,0,0,1,.486,1.44,1.035,1.035,0,0,1-1.4.407,5.184,5.184,0,0,0-1.4-.311C168.759,566.883,168.064,566.922,167.322,566.922Z" transform="translate(-43.734 -72.923)"/><path class="a" d="M285.688,572.233c0-2.225,0-4.45,0-6.675a1.03,1.03,0,1,1,2.055,0c.011.417,0,.834,0,1.251q0,5.965,0,11.93c0,.783-.348,1.232-.968,1.262a1.024,1.024,0,0,1-1.09-1.134Q285.685,575.55,285.688,572.233Z" transform="translate(-122.249 -72.64)"/><path class="a" d="M323.494,556.854a3.31,3.31,0,1,1,3.29,3.333A3.292,3.292,0,0,1,323.494,556.854Zm3.288-2.785a2.807,2.807,0,0,0,.021,5.614,2.807,2.807,0,1,0-.021-5.614Z" transform="translate(-146.902 -65.537)"/><path class="a" d="M286.058,551.686a1.337,1.337,0,0,1-1.364-1.377,1.37,1.37,0,0,1,2.74.012A1.333,1.333,0,0,1,286.058,551.686Z" transform="translate(-121.602 -62.545)"/><path class="a" d="M331.816,560.656l.674,1.07c-.29.124-.486.079-.63-.189-.085-.159-.215-.3-.286-.458-.176-.4-.478-.494-.926-.379v1.067l-.485.022V558.76a15.1,15.1,0,0,1,1.67.014.823.823,0,0,1,.766.847.855.855,0,0,1-.636.951C331.926,560.589,331.893,560.612,331.816,560.656Zm-1.154-1.505v1.092c.351-.023.68-.025,1-.071a.472.472,0,0,0,.425-.531.48.48,0,0,0-.482-.483C331.306,559.127,331,559.151,330.661,559.151Z" transform="translate(-151.251 -68.917)"/></g></svg>