<svg xmlns="http://www.w3.org/2000/svg" width="45.606" height="32.76" viewBox="0 0 45.606 32.76"><defs><style>.a{fill:#fff;}</style></defs><g transform="translate(-98.206 -453.052)"><path class="a" d="M139.879,453.094l-2.642,1.035L115.4,462.686q-4.507,1.766-9.013,3.535a.291.291,0,0,1-.34-.049q-3.372-2.828-6.752-5.646c-.051-.043-.1-.089-.162-.145.034-.009.054-.022.067-.017a11.116,11.116,0,0,0,3.517.705,42.733,42.733,0,0,0,9.327-.456,83.529,83.529,0,0,0,8.524-1.839c6.441-1.659,12.8-3.607,19.116-5.672.061-.02.124-.034.187-.051Z" transform="translate(-0.753)"/><path class="a" d="M222.9,573.078v.273q0,1.4,0,2.8c0,.387-.208.623-.545.624a.551.551,0,0,1-.551-.623q0-5.318,0-10.637c0-.432.2-.622.635-.623H224.1a2.3,2.3,0,0,1,2.418,2.243c.049,1.266.041,2.538-.01,3.8a2.3,2.3,0,0,1-2.292,2.137C223.787,573.081,223.362,573.078,222.9,573.078Zm.018-7.083v5.985h1.2a1.251,1.251,0,0,0,1.309-1.288q.006-1.714,0-3.428a1.215,1.215,0,0,0-1.1-1.26C223.869,565.958,223.4,566,222.918,566Z" transform="translate(-100.525 -90.963)"/><path class="a" d="M99.325,569.109c0,.49-.025.947.007,1.4a1.162,1.162,0,0,0,.748,1.032,1.225,1.225,0,0,0,1.337-.211.98.98,0,0,1,.361-.2.541.541,0,0,1,.471.925,2.381,2.381,0,0,1-2.829.386,2.313,2.313,0,0,1-1.207-2.129q-.014-1.735,0-3.471a2.29,2.29,0,0,1,1.322-2.192,2.361,2.361,0,0,1,3.408,2.1c.012.582,0,1.165,0,1.747a.541.541,0,0,1-.62.613h-3Zm2.515-1.091c0-.438,0-.855,0-1.272a1.24,1.24,0,0,0-1.167-1.243,1.209,1.209,0,0,0-1.32,1.018,12.225,12.225,0,0,0-.012,1.5Z" transform="translate(0 -90.549)"/><path class="a" d="M255.206,568.06c0-.513.035-.971-.01-1.42a1.137,1.137,0,0,0-.8-.986,1.113,1.113,0,0,0-1.222.253.567.567,0,0,1-.672.147.49.49,0,0,1-.318-.516.649.649,0,0,1,.153-.356,2.313,2.313,0,0,1,2.517-.528,2.282,2.282,0,0,1,1.46,2.115q0,2.676,0,5.352c0,.435-.193.628-.628.629-.59,0-1.179,0-1.769,0a2.351,2.351,0,0,1-.3-4.68A15.143,15.143,0,0,1,255.206,568.06Zm0,1.075c-.44,0-.858-.007-1.275,0a1.251,1.251,0,0,0-1.228,1.112,1.212,1.212,0,0,0,1.008,1.37,11.58,11.58,0,0,0,1.494.013Z" transform="translate(-124.749 -90.634)"/><path class="a" d="M188.155,568.595c0-.582,0-1.164,0-1.746a2.359,2.359,0,0,1,4.691-.4,1.7,1.7,0,0,1,.024.289c0,1.261.023,2.523-.007,3.783a2.2,2.2,0,0,1-1.359,2.047,2.246,2.246,0,0,1-2.408-.247,2.183,2.183,0,0,1-.932-1.755c-.021-.656,0-1.313,0-1.97Zm3.629.041c0-.59.008-1.18,0-1.769a1.272,1.272,0,0,0-1.266-1.318,1.255,1.255,0,0,0-1.265,1.27c-.018,1.2-.021,2.4,0,3.605a1.253,1.253,0,0,0,1.528,1.242,1.276,1.276,0,0,0,1-1.306C191.79,569.785,191.784,569.21,191.784,568.636Z" transform="translate(-73.158 -90.602)"/><path class="a" d="M134,571.62v-.366q0-3.08,0-6.16a.562.562,0,0,1,.422-.628.542.542,0,0,1,.673.479c.006.059,0,.119,0,.179q0,3.461,0,6.922c0,.5-.173.674-.672.672-.649,0-1.3.029-1.947-.022a2.3,2.3,0,0,1-2.1-2.264c-.012-1.8,0-3.6,0-5.4a.552.552,0,1,1,1.1-.007c.007.732,0,1.464,0,2.2q0,1.546,0,3.091a1.244,1.244,0,0,0,1.307,1.307Z" transform="translate(-26.165 -90.603)"/><path class="a" d="M209.45,474.975c-.782.45-1.567.894-2.345,1.35-2.382,1.4-4.749,2.814-6.986,4.438a18.4,18.4,0,0,0-3.657,3.442c-.294.371-.529.788-.782,1.169,0-.088-.005-.215,0-.342.053-1.1.11-2.19.158-3.286a.273.273,0,0,1,.175-.272q4.566-2.219,9.127-4.444L209.3,475l.135-.064Z" transform="translate(-79.277 -17.801)"/><path class="a" d="M302.219,565.982v.3q0,3.123,0,6.247a.555.555,0,0,1-.414.61.537.537,0,0,1-.681-.537c-.009-.492,0-.985,0-1.478q0-2.777,0-5.553c0-.514.168-.68.685-.68.582,0,1.164,0,1.746,0a2.323,2.323,0,0,1,1.091.292.547.547,0,0,1,.234.732.505.505,0,0,1-.7.258,2.076,2.076,0,0,0-1.041-.193C302.843,565.988,302.546,565.982,302.219,565.982Z" transform="translate(-165.036 -90.962)"/><path class="a" d="M166.373,565.978v.573q0,2.977,0,5.955c0,.415-.215.652-.574.642a.518.518,0,0,1-.52-.485c-.006-.059,0-.119,0-.179q0-3.47,0-6.94c0-.485.172-.656.662-.656.575,0,1.149,0,1.724,0a2.346,2.346,0,0,1,1.1.274.548.548,0,0,1,.261.773.555.555,0,0,1-.752.219,2.783,2.783,0,0,0-.752-.167C167.144,565.958,166.772,565.978,166.373,565.978Z" transform="translate(-54.55 -90.958)"/><path class="a" d="M285.687,568.627c0-1.194,0-2.387,0-3.581a.553.553,0,1,1,1.1,0c.006.224,0,.447,0,.671q0,3.2,0,6.4c0,.42-.187.661-.519.677a.549.549,0,0,1-.585-.609Q285.686,570.407,285.687,568.627Z" transform="translate(-152.484 -90.606)"/><path class="a" d="M323.494,555.327a1.776,1.776,0,1,1,1.765,1.788A1.766,1.766,0,0,1,323.494,555.327Zm1.764-1.494a1.506,1.506,0,0,0,.011,3.012,1.506,1.506,0,1,0-.011-3.012Z" transform="translate(-183.233 -81.746)"/><path class="a" d="M285.425,550.428a.717.717,0,0,1-.732-.739.735.735,0,0,1,1.47.007A.715.715,0,0,1,285.425,550.428Z" transform="translate(-151.676 -78.014)"/><path class="a" d="M331.05,559.769l.362.574c-.156.066-.261.043-.338-.1-.045-.085-.115-.158-.153-.246-.095-.217-.257-.265-.5-.2v.573l-.26.012v-1.625a8.1,8.1,0,0,1,.9.008.441.441,0,0,1,.411.454.459.459,0,0,1-.341.51C331.109,559.733,331.091,559.746,331.05,559.769Zm-.619-.807v.586c.188-.012.365-.013.538-.038a.254.254,0,0,0,.228-.285.258.258,0,0,0-.259-.259C330.776,558.949,330.612,558.962,330.43,558.962Z" transform="translate(-188.658 -85.962)"/></g></svg>