<?xml version="1.0" encoding="UTF-8" standalone="no"?>
<svg version="1.1" xmlns="http://www.w3.org/2000/svg" xmlns:xlink="http://www.w3.org/1999/xlink"
  preserveAspectRatio="xMidYMid meet" viewBox="2.4833307776979434 4.525382671416695 24 24" width="24" height="24">
  <defs>
    <path
      d="M20.71 23.68L22.03 22.35L20.65 12.14C21.88 10.91 22.56 10.22 22.7 10.09C23.74 9.04 23.74 7.35 22.7 6.31C22.7 6.31 22.7 6.31 22.7 6.31C22.7 6.31 22.7 6.31 22.7 6.31C21.66 5.26 19.97 5.26 18.92 6.31C18.92 6.31 18.92 6.31 18.92 6.31C18.79 6.44 18.1 7.13 16.87 8.36L6.66 6.97L5.33 8.31L12.53 12.7L8.11 17.12L4.81 16.8L3.48 18.13L8.51 20.49L10.88 25.53L12.21 24.19L11.9 20.89L16.31 16.47L20.71 23.68Z"
      id="a2dvj0pX7s"></path>
  </defs>
  <g>
    <g>
      <use xlink:href="#a2dvj0pX7s" opacity="1" fill-opacity="1"></use>
      <g>
        <use xlink:href="#a2dvj0pX7s" opacity="1" fill-opacity="0" stroke="#000000" stroke-width="1" stroke-opacity="0">
        </use>
      </g>
    </g>
  </g>
</svg>
